:SAMPLES-PER-SECOND 30
:FULLY-SPECIFIED
:DEGREES
159
root  -72.0279 41.7305 -6.08382 -161.293 -86.342 163.144
RightUpLeg  1.46434 -7.56472 -6.09004
RightLeg  2.51586 -0.931262 2.44537
RightFoot  -2.60129 0.00607737 -0.162743
RightToes  1.74622e-010 0 -3.6325e-017
Spine  1.29814 -0.705171 2.2266
Spine1  -0.31546 0.184939 -4.98063
HEad  -9.38614 4.87295 1.40734
LeftShoulder1  0.561457 -0.940529 -4.67503
LeftArm  -17.1714 12.1052 -3.19692
LeftForeArm  9.09736 -3.91794 -1.79887
LeftHand  -0.244104 0.0205437 5.32207
RightShoulder  1.05284 1.96459 12.1924
RightArm  -16.3749 -1.29163 -5.07015
RightForeArm  -3.48676 1.1985 4.5954
RightHand  -0.708688 1.09144 -12.8017
LeftUpLeg  -0.291984 4.57337 3.04206
LeftLeg  -0.128459 11.6362 -3.69471
LeftFoot  -0.872382 0.0635494 -0.653428
LeftToes  -5.82109e-011 8.55049e-011 -1.09726e-011
160
root  -72.0797 41.73 -6.10641 -161.342 -86.2584 163.299
RightUpLeg  1.38137 -7.53251 -6.04294
RightLeg  2.57153 -0.947782 2.42697
RightFoot  -2.60886 0.0172394 -0.336083
RightToes  1.74622e-010 0 -3.6325e-017
Spine  1.43424 -0.654451 1.9775
Spine1  -0.492652 0.171285 -4.62525
HEad  -9.47103 4.86199 1.25863
LeftShoulder1  0.566325 -0.922582 -4.85505
LeftArm  -16.8155 12.4278 -3.21897
LeftForeArm  8.58438 -2.99392 -1.76354
LeftHand  -0.244104 0.0205437 5.32207
RightShoulder  1.02776 1.88233 12.0023
RightArm  -16.3231 -1.40861 -4.97566
RightForeArm  -3.92128 1.11698 4.61405
RightHand  -0.730022 1.14921 -13.0692
LeftUpLeg  -0.295463 4.5435 3.02705
LeftLeg  -0.178115 11.771 -3.6725
LeftFoot  -0.870708 0.0627014 -0.619354
LeftToes  -5.82109e-011 8.55049e-011 -1.09726e-011
161
root  -72.1283 41.7296 -6.13143 -160.541 -86.1172 162.609
RightUpLeg  1.22489 -7.53356 -6.06222
RightLeg  2.74346 -0.880877 2.38642
RightFoot  -2.69561 0.0283758 -0.509049
RightToes  1.74622e-010 0 -3.6325e-017
Spine  1.50978 -0.556352 1.80217
Spine1  -0.649751 0.23745 -4.43128
HEad  -9.5086 4.81619 1.16595
LeftShoulder1  0.583258 -0.988504 -5.06651
LeftArm  -16.6963 12.7984 -3.05089
LeftForeArm  8.00118 -2.61836 -1.70881
LeftHand  -0.244104 0.0205437 5.32207
RightShoulder  0.99182 1.75417 11.7582
RightArm  -16.6458 -1.64272 -4.95782
RightForeArm  -3.54361 1.09895 4.4469
RightHand  -0.754573 1.35796 -13.1022
LeftUpLeg  -0.267365 4.4514 2.93204
LeftLeg  -0.311312 12.0074 -3.65784
LeftFoot  -0.862809 0.0635825 -0.61296
LeftToes  -5.82109e-011 8.55049e-011 -1.09726e-011
162
root  -72.1768 41.7293 -6.14961 -160.111 -86.0434 162.233
RightUpLeg  1.17493 -7.54309 -6.07529
RightLeg  2.85773 -0.851644 2.37506
RightFoot  -2.7834 0.0378153 -0.655679
RightToes  1.74622e-010 0 -3.6325e-017
Spine  1.50379 -0.50261 1.87988
Spine1  -0.664328 0.307443 -4.50881
HEad  -9.52101 4.76616 1.16023
LeftShoulder1  0.605644 -1.05972 -5.39212
LeftArm  -16.7446 13.1124 -2.62328
LeftForeArm  7.69446 -2.76264 -1.65186
LeftHand  -0.244104 0.0205437 5.32207
RightShoulder  0.960063 1.64984 11.5004
RightArm  -17.219 -1.85583 -4.93939
RightForeArm  -2.48516 1.06269 4.15265
RightHand  -0.738324 1.37541 -12.7905
LeftUpLeg  -0.217923 4.39282 2.88462
LeftLeg  -0.360189 12.1386 -3.63044
LeftFoot  -0.908977 0.0699176 -0.692957
LeftToes  -5.82109e-011 8.55049e-011 -1.09726e-011
163
root  -72.2269 41.7292 -6.16015 -160.374 -86.145 162.461
RightUpLeg  1.34831 -7.53446 -6.032
RightLeg  2.78497 -0.97162 2.40596
RightFoot  -2.79895 0.0443193 -0.756721
RightToes  1.74622e-010 0 -3.6325e-017
Spine  1.48404 -0.585056 2.28811
Spine1  -0.588964 0.32123 -5.06589
HEad  -9.33456 4.63884 1.46536
LeftShoulder1  0.59111 -1.00684 -5.20202
LeftArm  -16.8285 13.4686 -2.45843
LeftForeArm  7.70606 -3.21132 -1.62822
LeftHand  -0.244104 0.0205437 5.32207
RightShoulder  0.963824 1.62202 11.6886
RightArm  -17.626 -1.85725 -5.16692
RightForeArm  -1.84301 0.923095 3.95456
RightHand  -0.692462 1.13512 -12.4342
LeftUpLeg  -0.151287 4.43004 2.95338
LeftLeg  -0.260292 12.009 -3.59443
LeftFoot  -1.0123 0.076716 -0.782515
LeftToes  -5.82109e-011 8.55049e-011 -1.09726e-011
164
root  -72.2746 41.7291 -6.17345 -160.441 -86.3366 162.467
RightUpLeg  1.60326 -7.52155 -5.97504
RightLeg  2.63517 -1.16494 2.44051
RightFoot  -2.7899 0.0480791 -0.815136
RightToes  1.74622e-010 0 -3.6325e-017
Spine  1.42766 -0.613598 2.46133
Spine1  -0.434283 0.289964 -5.0477
HEad  -8.81572 4.3588 1.48041
LeftShoulder1  0.636013 -1.1779 -5.74767
LeftArm  -16.4627 13.7083 -1.77156
LeftForeArm  7.39355 -3.69431 -1.79054
LeftHand  -0.244104 0.0205437 5.32207
RightShoulder  0.886542 1.34918 11.099
RightArm  -17.7871 -1.85542 -4.84015
RightForeArm  -1.93311 0.860282 3.90277
RightHand  -0.668304 0.927742 -12.383
LeftUpLeg  -0.0768354 4.49685 3.04826
LeftLeg  -0.146 11.7632 -3.56872
LeftFoot  -1.10822 0.0786986 -0.798166
LeftToes  -5.82109e-011 8.55049e-011 -1.09726e-011
165
root  -72.3129 41.7281 -6.19499 -159.711 -86.4588 161.695
RightUpLeg  1.75784 -7.54188 -5.97209
RightLeg  2.59711 -1.26911 2.4612
RightFoot  -2.83837 0.0512487 -0.864383
RightToes  1.74622e-010 0 -3.6325e-017
Spine  1.39246 -0.627808 2.48009
Spine1  -0.33184 0.273503 -5.02001
HEad  -8.28807 4.31995 1.45315
LeftShoulder1  0.653803 -1.27702 -5.8505
LeftArm  -15.9961 13.9995 -1.48934
LeftForeArm  7.08101 -4.21621 -2.01509
LeftHand  -0.244104 0.0205437 5.32207
RightShoulder  0.845153 1.19217 10.7972
RightArm  -17.8211 -1.87894 -4.69563
RightForeArm  -2.18933 0.941619 3.91775
RightHand  -0.676075 0.927324 -12.5251
LeftUpLeg  0.00623919 4.49547 3.06101
LeftLeg  -0.128984 11.6454 -3.53687
LeftFoot  -1.14637 0.0785298 -0.780526
LeftToes  -5.82109e-011 8.55049e-011 -1.09726e-011
166
root  -72.3408 41.7269 -6.21901 -158.917 -86.4772 160.852
RightUpLeg  1.8359 -7.58901 -6.00795
RightLeg  2.66221 -1.25526 2.48413
RightFoot  -2.92222 0.0560261 -0.938614
RightToes  1.74622e-010 0 -3.6325e-017
Spine  1.39041 -0.611755 2.32768
Spine1  -0.223744 0.260897 -4.82247
HEad  -7.87997 4.48052 1.33922
LeftShoulder1  0.655183 -1.25716 -5.94607
LeftArm  -15.8216 14.0975 -1.38281
LeftForeArm  7.04175 -4.58395 -2.12504
LeftHand  -0.244104 0.0205437 5.32207
RightShoulder  0.830415 1.16702 10.5539
RightArm  -17.928 -1.91893 -4.57968
RightForeArm  -2.07982 1.11151 3.89371
RightHand  -0.693908 1.03554 -12.6435
LeftUpLeg  0.115254 4.4397 3.02229
LeftLeg  -0.168454 11.6755 -3.48297
LeftFoot  -1.14579 0.0817918 -0.816299
LeftToes  -5.82109e-011 8.55049e-011 -1.09726e-011
167
root  -72.3619 41.726 -6.24358 -158.818 -86.4763 160.697
RightUpLeg  1.92252 -7.60287 -6.00036
RightLeg  2.69128 -1.25013 2.50257
RightFoot  -2.96966 0.061402 -1.02215
RightToes  1.74622e-010 0 -3.6325e-017
Spine  1.40557 -0.610614 2.17078
Spine1  -0.10021 0.230444 -4.61224
HEad  -7.63234 4.55862 1.33026
LeftShoulder1  0.636418 -1.08991 -6.04436
LeftArm  -15.9929 13.922 -1.41398
LeftForeArm  7.28925 -4.64185 -2.08591
LeftHand  -0.244104 0.0205437 5.32207
RightShoulder  0.832212 1.19734 10.4687
RightArm  -18.0171 -1.80973 -4.51455
RightForeArm  -1.88137 1.16863 3.87718
RightHand  -0.717884 1.2337 -12.6987
LeftUpLeg  0.221235 4.42363 3.03623
LeftLeg  -0.189788 11.685 -3.4427
LeftFoot  -1.14793 0.0883297 -0.903025
LeftToes  -5.82109e-011 8.55049e-011 -1.09726e-011
